# xmcd
#
# Track frame offsets: 
#        150
#        21854
#        59227
#        84756
#        126036
#        146770
#        172735
#        191530
#
# Disc length: 2718 seconds
#
# Revision: 0
# Processed by: cddbd v1.5.2PL0 Copyright (c) Steve Scherf et al.
# Submitted via: ExactAudioCopy v0.95b3
#
DISCID=660a9c08
DTITLE=Van Morrison - November Cloud
DYEAR=1987
DGENRE=Soul
TTITLE0=A Sense Of Wonder
TTITLE1=And The Healing Has Begun
TTITLE2=In The Garden
TTITLE3=Summertime In England
TTITLE4=Rave On John Donne
TTITLE5=Did Ye Get Healed
TTITLE6=Bright Side Of The Road
TTITLE7=Full Force Gale
EXTD=
EXTT0=
EXTT1=
EXTT2=
EXTT3=
EXTT4=
EXTT5=
EXTT6=
EXTT7=
PLAYORDER=
